# xmcd
#
# Track frame offsets:
#	150
#	20571
#	38637
#	59356
#	71074
#	89338
#	105290
#	120282
#	150886
#	168343
#	186736
#
# Disc length: 2722 seconds
#
# Revision: 0
# Processed by: cddbd v1.5.2PL0 Copyright (c) Steve Scherf et al.
# Submitted via: dBpowerAMP V4.0
#
DISCID=840aa00b
DTITLE=Canibal Dandies - Canibal dandies 2
DYEAR=2014
DGENRE=Blues
TTITLE0=Walkin stick (Irving Berlin) 1938
TTITLE1=Lisbon blues (A. Berry) 2013
TTITLE2=Songe d'automne (Archibald Joyce) 1912
TTITLE3=Papa de da da (Spencer and Clarence William, Todd) 1925
TTITLE4=Lovin'avenue (A. Berry) 2013
TTITLE5=Root hog or die (Harlem Hamfats) 1938
TTITLE6=Milenberg joy ("Jelly Roll Morton") 1925
TTITLE7=Blue illusion (Andy Kirk) 1936
TTITLE8=Jesus on the main line (Trad Of God)
TTITLE9=No more rice (J. Didier) 2013
TTITLE10=Dinah (Harry Askt, Sam M. Lewis, Joe Young) 1925
EXTD=
EXTT0=
EXTT1=
EXTT2=
EXTT3=
EXTT4=
EXTT5=
EXTT6=
EXTT7=
EXTT8=
EXTT9=
EXTT10=
PLAYORDER=
